<?xml version="1.0" encoding="utf-8"?>
<svg width="40" height="40" xmlns="http://www.w3.org/2000/svg">
  <defs>
    <linearGradient id="a" x2=".956" y1=".5" y2=".5" gradientUnits="objectBoundingBox">
      <stop offset="0" stop-color="#410cf0"/>
      <stop offset="1" stop-color="#28cdd9"/>
    </linearGradient>
    <clipPath id="clip0_83_38736">
      <rect width="16" height="16" fill="white"/>
    </clipPath>
  </defs>
  <path fill="none" d="M0 0h40v40H0z" data-name="Rectangle 549" opacity=".684"/>
  <path fill="url(#a)" d="M0 15a15 15 0 1 0 26.97-9.042l-.691.477-3.018 2.083.008.011-7.144 4.971v6l9.247-6.147a10.5 10.5 0 1 1-20.673-.4l9.176 6.547v-6L6.836 8.4l.016-.02-2.968-2.123-.7-.5A14.939 14.939 0 0 0 0 15M15 0A14.948 14.948 0 0 0 4.722 4.075l3.766 2.689a10.5 10.5 0 0 1 13.178.123l3.806-2.627A14.955 14.955 0 0 0 15 0Z" data-name="Path 4601" transform="translate(5 5)"/>
  <g clip-path="url(#clip0_83_38736)" style="" transform="matrix(1.255337, 0.006319, -0.006318, 1.254619, 19.240753, 18.907581)">
    <path d="M8 16C9.58225 16 11.129 15.5308 12.4446 14.6518C13.7602 13.7727 14.7855 12.5233 15.391 11.0615C15.9965 9.59966 16.155 7.99113 15.8463 6.43928C15.5376 4.88743 14.7757 3.46197 13.6569 2.34315C12.538 1.22433 11.1126 0.462403 9.56072 0.153721C8.00887 -0.15496 6.40034 0.00346632 4.93853 0.608967C3.47672 1.21447 2.22729 2.23985 1.34824 3.55544C0.469192 4.87103 0 6.41775 0 8C0 10.1217 0.842854 12.1566 2.34315 13.6569C3.84344 15.1571 5.87827 16 8 16Z" fill="#0052FF"/>
    <path fillrule="evenodd" cliprule="evenodd" d="M7.98118 13.6338C11.0926 13.6338 13.615 11.1115 13.615 8.00001C13.615 4.88855 11.0926 2.36621 7.98118 2.36621C5.0294 2.36621 2.60783 4.6363 2.36705 7.52588H10.7273V8.464H2.36621C2.60216 11.3584 5.02595 13.6338 7.98118 13.6338Z" fill="white"/>
  </g>
</svg>